<svg width="55" height="55" viewBox="0 0 55 55" fill="none" xmlns="http://www.w3.org/2000/svg">
<path fill-rule="evenodd" clip-rule="evenodd" d="M0 10.996C0 4.92307 4.92486 0 11 0H44C50.075 0 55 4.92307 55 10.996V43.984C55 50.0568 50.075 54.98 44 54.98H11C4.92486 54.98 0 50.0568 0 43.984V10.996ZM11 5.498C7.96243 5.498 5.5 7.95954 5.5 10.996V43.984C5.5 47.0205 7.96243 49.482 11 49.482H27.5V30.239H24.75C23.2312 30.239 22 29.0083 22 27.49C22 25.9717 23.2312 24.741 24.75 24.741H27.5V20.6175C27.5 15.3037 31.8092 10.996 37.125 10.996H38.775C40.2938 10.996 41.525 12.2268 41.525 13.745C41.525 15.2632 40.2938 16.494 38.775 16.494H37.125C34.8469 16.494 33 18.3401 33 20.6175V24.741H38.775C40.2938 24.741 41.525 25.9717 41.525 27.49C41.525 29.0083 40.2938 30.239 38.775 30.239H33V49.482H44C47.0377 49.482 49.5 47.0205 49.5 43.984V10.996C49.5 7.95954 47.0377 5.498 44 5.498H11Z" fill="black"/>
</svg>
