<svg width="55" height="55" viewBox="0 0 55 55" fill="none" xmlns="http://www.w3.org/2000/svg">
<path fill-rule="evenodd" clip-rule="evenodd" d="M16.1416 0.337383C11.6649 0.539297 7.78474 1.63339 4.65161 4.75216C1.50754 7.88731 0.426639 11.7814 0.224148 16.2099C0.0982751 18.974 -0.637764 39.8559 1.49659 45.3321C2.93592 49.0266 5.77071 51.8673 9.50036 53.3107C11.2407 53.9874 13.2273 54.4454 16.1416 54.5791C40.5088 55.6815 49.5415 55.0814 53.3505 45.3321C54.0264 43.5967 54.4916 41.6126 54.6202 38.7066C55.7339 14.2858 54.4396 8.99238 50.1928 4.75216C46.8243 1.39327 42.8621 -0.893208 16.1416 0.337383ZM16.3659 49.6677C13.6979 49.5476 12.2504 49.1033 11.2845 48.7295C8.85461 47.7854 7.02946 45.9684 6.09089 43.5536C4.4655 39.3925 5.00458 19.6293 5.14961 16.4314C5.2919 13.299 5.92672 10.4361 8.1377 8.226C10.8741 5.49739 14.4094 4.16013 38.4811 5.24612C41.6224 5.388 44.4929 6.0213 46.7094 8.226C49.4457 10.9546 50.803 14.5158 49.6975 38.4865C49.5771 41.1469 49.1311 42.5904 48.7562 43.5536C46.2798 49.8976 40.5826 50.7782 16.3659 49.6677ZM38.7466 12.8918C38.7466 14.6981 40.216 16.167 42.0302 16.167C43.8444 16.167 45.3166 14.6981 45.3166 12.8918C45.3166 11.0855 43.8444 9.61795 42.0302 9.61795C40.216 9.61795 38.7466 11.0855 38.7466 12.8918ZM13.3723 27.4569C13.3723 35.1952 19.6632 41.469 27.4235 41.469C35.1838 41.469 41.4747 35.1952 41.4747 27.4569C41.4747 19.7186 35.1838 13.4488 27.4235 13.4488C19.6632 13.4488 13.3723 19.7186 13.3723 27.4569ZM18.3033 27.4569C18.3033 22.4363 22.3859 18.3629 27.4235 18.3629C32.4612 18.3629 36.5438 22.4363 36.5438 27.4569C36.5438 32.4803 32.4612 36.5549 27.4235 36.5549C22.3859 36.5549 18.3033 32.4803 18.3033 27.4569Z" fill="black"/>
</svg>
