<svg width="55" height="55" fill="none" xmlns="http://www.w3.org/2000/svg"><path fill-rule="evenodd" clip-rule="evenodd" d="M11 0C4.925 0 0 4.923 0 10.996v32.988C0 50.057 4.925 54.98 11 54.98h33c6.075 0 11-4.923 11-10.996V10.996C55 4.923 50.075 0 44 0H11ZM5.5 10.996A5.499 5.499 0 0 1 11 5.498h33c3.038 0 5.5 2.462 5.5 5.498v32.988a5.499 5.499 0 0 1-5.5 5.498H11a5.499 5.499 0 0 1-5.5-5.498V10.996Zm13.75 13.745a2.75 2.75 0 0 0-5.5 0v16.494a2.75 2.75 0 0 0 5.5 0V24.741Zm1.375-9.621a4.124 4.124 0 0 1-4.125 4.123 4.124 4.124 0 1 1 4.125-4.123Zm6.875 6.872c.934 0 1.759.465 2.256 1.176a9.656 9.656 0 0 1 4.619-1.176c5.938 0 9.625 5.294 9.625 9.818V41.234a2.75 2.75 0 0 1-5.5.001V31.81c0-2.112-1.813-4.32-4.125-4.32-1.441 0-3.032.783-4.125 2.648V41.235a2.75 2.75 0 0 1-5.5 0V24.743a2.751 2.751 0 0 1 2.75-2.751Z" fill="#000"/></svg>