<svg width="55" height="56" viewBox="0 0 55 56" fill="none" xmlns="http://www.w3.org/2000/svg">
<path fill-rule="evenodd" clip-rule="evenodd" d="M17.1125 6.66714C23.5912 5.60478 31.4087 5.60478 37.8875 6.66714C43.774 7.63235 48.3352 12.4142 49.2077 17.5649C50.2639 23.8002 50.2639 31.3458 49.2077 37.5811C48.3352 42.7318 43.774 47.5136 37.8877 48.479C31.4087 49.5412 23.5912 49.5412 17.1125 48.479C11.2262 47.5136 6.66499 42.7318 5.79227 37.5811C4.73585 31.3458 4.73595 23.8002 5.79229 17.5649C6.66489 12.4142 11.2262 7.63235 17.1125 6.66714ZM38.589 0.936984C31.645 -0.201651 23.3552 -0.201651 16.4111 0.936984C8.87464 2.17279 2.2504 8.39603 0.885725 16.4513C-0.295181 23.422 -0.295311 31.724 0.88575 38.6945C2.25052 46.75 8.87459 52.9731 16.4111 54.209C23.3552 55.3477 31.645 55.3477 38.589 54.209C46.1255 52.9731 52.7497 46.75 54.1144 38.6945C55.2952 31.724 55.2952 23.422 54.1144 16.4513C52.7497 8.396 46.1255 2.17279 38.589 0.936984ZM23.8867 13.5906C23.1195 12.9986 22.1332 12.9434 21.3203 13.447C20.5075 13.9505 20 14.9311 20 15.9982V39.1477C20 40.2149 20.5075 41.1956 21.3203 41.6991C22.1332 42.2026 23.1195 42.1473 23.8867 41.5555L38.8867 29.9808C39.5822 29.444 40 28.5406 40 27.573C40 26.6053 39.5822 25.7019 38.8867 25.1651L23.8867 13.5906ZM32.993 27.573L25 33.7409V21.4051L32.993 27.573Z" fill="black"/>
</svg>
